<svg width="28" height="28" viewBox="0 0 28 28" fill="none" xmlns="http://www.w3.org/2000/svg">
<circle cx="14" cy="14" r="14" fill="white"/>
<circle cx="14" cy="14" r="13.5" stroke="black" stroke-opacity="0.2"/>
<path fill-rule="evenodd" clip-rule="evenodd" d="M14.6068 7.22656C11.0159 7.22656 8.12695 10.1155 8.12695 13.7065C8.12695 16.5684 9.98992 18.9984 12.5549 19.8624C12.8789 19.9164 12.9869 19.7274 12.9869 19.5384C12.9869 19.3764 12.9869 18.9714 12.9869 18.4314C11.1779 18.8364 10.7999 17.5674 10.7999 17.5674C10.5029 16.8114 10.0709 16.6224 10.0709 16.6224C9.47693 16.2174 10.1249 16.2174 10.1249 16.2174C10.7729 16.2714 11.1239 16.8924 11.1239 16.8924C11.6909 17.8914 12.6359 17.5944 13.0139 17.4324C13.0679 17.0004 13.2299 16.7304 13.4189 16.5684C11.9879 16.4064 10.4759 15.8394 10.4759 13.3555C10.4759 12.6535 10.7189 12.0595 11.1509 11.6275C11.0969 11.4655 10.8539 10.8175 11.2049 9.89952C11.2049 9.89952 11.7449 9.73752 12.9869 10.5745C13.4999 10.4395 14.0669 10.3585 14.6068 10.3585C15.1468 10.3585 15.7138 10.4395 16.2268 10.5745C17.4688 9.73752 18.0088 9.89952 18.0088 9.89952C18.3598 10.7905 18.1438 11.4385 18.0628 11.6275C18.4678 12.0865 18.7378 12.6535 18.7378 13.3555C18.7378 15.8394 17.2258 16.3794 15.7678 16.5414C16.0108 16.7304 16.1998 17.1354 16.1998 17.7294C16.1998 18.5934 16.1998 19.2954 16.1998 19.5114C16.1998 19.6734 16.3078 19.8894 16.6588 19.8354C19.2238 18.9984 21.0867 16.5684 21.0867 13.7065C21.0867 10.1155 18.1978 7.22656 14.6068 7.22656Z" fill="black"/>
<path d="M12.5772 17.0569C12.454 17.0901 12.3169 17.1111 12.1825 17.0996C11.9874 17.0829 11.7585 16.9976 11.5587 16.6456L11.5584 16.645L11.5575 16.6433L11.5552 16.6394L11.5489 16.6287C11.5439 16.6205 11.5375 16.6099 11.5295 16.5974C11.5136 16.5723 11.4914 16.539 11.4631 16.5001C11.4565 16.4911 11.4496 16.4818 11.4424 16.4722C11.8101 16.7008 12.2127 16.845 12.6116 16.9387C12.5992 16.9771 12.5877 17.0164 12.5772 17.0569ZM9.97592 13.3555C9.97592 14.4811 10.2651 15.3059 10.7632 15.8907C10.5937 15.8043 10.3945 15.7382 10.1664 15.7191L10.1457 15.7174H10.1249V16.2174C10.1249 15.7174 10.1248 15.7174 10.1246 15.7174L10.1243 15.7174L10.1236 15.7174L10.122 15.7174L10.118 15.7175L10.107 15.7176C10.0985 15.7178 10.0875 15.7182 10.0744 15.7188C10.0486 15.72 10.0129 15.7225 9.97194 15.7275C9.90904 15.7352 9.76127 15.7565 9.62531 15.835C9.5525 15.877 9.43937 15.9603 9.37159 16.1098C9.29643 16.2756 9.31227 16.4433 9.36453 16.574C9.37058 16.5891 9.37711 16.6038 9.38403 16.618C8.90213 15.7557 8.62695 14.7627 8.62695 13.7065C8.62695 10.3917 11.292 7.72656 14.6068 7.72656C17.9216 7.72656 20.5867 10.3917 20.5867 13.7065C20.5867 16.2734 18.9623 18.4633 16.6998 19.2921V19.291V19.2885V19.2861V19.2836V19.2811V19.2786V19.276V19.2735V19.271V19.2684V19.2659V19.2633V19.2607V19.2581V19.2556V19.2529V19.2503V19.2477V19.2451V19.2424V19.2398V19.2371V19.2345V19.2318V19.2291V19.2264V19.2237V19.221V19.2183V19.2155V19.2128V19.2101V19.2073V19.2045V19.2018V19.199V19.1962V19.1934V19.1906V19.1877V19.1849V19.1821V19.1792V19.1764V19.1735V19.1706V19.1678V19.1649V19.162V19.1591V19.1561V19.1532V19.1503V19.1473V19.1444V19.1414V19.1385V19.1355V19.1325V19.1295V19.1265V19.1235V19.1205V19.1174V19.1144V19.1114V19.1083V19.1052V19.1022V19.0991V19.096V19.0929V19.0898V19.0867V19.0836V19.0804V19.0773V19.0741V19.071V19.0678V19.0647V19.0615V19.0583V19.0551V19.0519V19.0487V19.0454V19.0422V19.039V19.0357V19.0325V19.0292V19.0259V19.0227V19.0194V19.0161V19.0128V19.0095V19.0062V19.0028V18.9995V18.9962V18.9928V18.9894V18.9861V18.9827V18.9793V18.9759V18.9725V18.9691V18.9657V18.9623V18.9589V18.9554V18.952V18.9485V18.9451V18.9416V18.9381V18.9346V18.9312V18.9277V18.9241V18.9206V18.9171V18.9136V18.91V18.9065V18.9029V18.8994V18.8958V18.8922V18.8887V18.8851V18.8815V18.8779V18.8743V18.8706V18.867V18.8634V18.8597V18.8561V18.8524V18.8488V18.8451V18.8414V18.8377V18.834V18.8303V18.8266V18.8229V18.8192V18.8155V18.8117V18.808V18.8042V18.8005V18.7967V18.7929V18.7891V18.7854V18.7816V18.7778V18.7739V18.7701V18.7663V18.7625V18.7586V18.7548V18.7509V18.7471V18.7432V18.7394V18.7355V18.7316V18.7277V18.7238V18.7199V18.716V18.7121V18.7081V18.7042V18.7003V18.6963V18.6923V18.6884V18.6844V18.6804V18.6765V18.6725V18.6685V18.6645V18.6605V18.6565V18.6524V18.6484V18.6444V18.6403V18.6363V18.6322V18.6282V18.6241V18.62V18.6159V18.6119V18.6078V18.6037V18.5996V18.5955V18.5913V18.5872V18.5831V18.5789V18.5748V18.5706V18.5665V18.5623V18.5582V18.554V18.5498V18.5456V18.5414V18.5372V18.533V18.5288V18.5246V18.5203V18.5161V18.5119V18.5076V18.5034V18.4991V18.4949V18.4906V18.4863V18.482V18.4777V18.4735V18.4692V18.4649V18.4605V18.4562V18.4519V18.4476V18.4432V18.4389V18.4346V18.4302V18.4258V18.4215V18.4171V18.4127V18.4083V18.404V18.3996V18.3952V18.3908V18.3864V18.3819V18.3775V18.3731V18.3687V18.3642V18.3598V18.3553V18.3509V18.3464V18.3419V18.3375V18.333V18.3285V18.324V18.3195V18.315V18.3105V18.306V18.3015V18.297V18.2925V18.2879V18.2834V18.2788V18.2743V18.2697V18.2652V18.2606V18.256V18.2515V18.2469V18.2423V18.2377V18.2331V18.2285V18.2239V18.2193V18.2147V18.2101V18.2054V18.2008V18.1962V18.1915V18.1869V18.1822V18.1776V18.1729V18.1682V18.1636V18.1589V18.1542V18.1495V18.1448V18.1401V18.1354V18.1307V18.126V18.1213V18.1166V18.1118V18.1071V18.1024V18.0976V18.0929V18.0881V18.0834V18.0786V18.0739V18.0691V18.0643V18.0595V18.0547V18.05V18.0452V18.0404V18.0356V18.0308V18.0259V18.0211V18.0163V18.0115V18.0067V18.0018V17.997V17.9921V17.9873V17.9824V17.9776V17.9727V17.9679V17.963V17.9581V17.9532V17.9483V17.9435V17.9386V17.9337V17.9288V17.9239V17.919V17.914V17.9091V17.9042V17.8993V17.8943V17.8894V17.8845V17.8795V17.8746V17.8696V17.8647V17.8597V17.8548V17.8498V17.8448V17.8398V17.8349V17.8299V17.8249V17.8199V17.8149V17.8099V17.8049V17.7999V17.7949V17.7899V17.7849V17.7798V17.7748V17.7698V17.7647V17.7597V17.7547V17.7496V17.7446V17.7395V17.7345V17.7294C16.6998 17.435 16.6596 17.159 16.5808 16.9148C17.1185 16.7931 17.662 16.5838 18.1192 16.2037C18.8208 15.6204 19.2378 14.7068 19.2378 13.3555C19.2378 12.6272 18.9929 12.0204 18.6228 11.5244C18.7219 11.1382 18.7825 10.4995 18.474 9.71626L18.385 9.49037L18.1525 9.42061L18.0088 9.89952C18.1525 9.42061 18.152 9.42046 18.1515 9.42032L18.1505 9.42003L18.1485 9.41944L18.1443 9.41824L18.1354 9.41578C18.1291 9.41412 18.1222 9.41241 18.1148 9.4107C18.0999 9.40727 18.0828 9.40383 18.0634 9.40067C18.0245 9.39435 17.9768 9.38922 17.9201 9.38751C17.8063 9.38409 17.6587 9.39448 17.4757 9.43492C17.146 9.50776 16.7038 9.67744 16.1352 10.0371C15.6446 9.92472 15.1171 9.85851 14.6068 9.85851C14.0966 9.85851 13.5691 9.92472 13.0785 10.0371C12.5099 9.67744 12.0677 9.50776 11.738 9.43492C11.555 9.39448 11.4074 9.38409 11.2936 9.38751C11.2369 9.38922 11.1892 9.39435 11.1503 9.40067C11.1309 9.40383 11.1138 9.40727 11.0989 9.4107C11.0915 9.41241 11.0846 9.41412 11.0783 9.41578L11.0694 9.41824L11.0652 9.41944L11.0632 9.42003L11.0622 9.42032C11.0617 9.42046 11.0612 9.42061 11.2049 9.89952L11.0612 9.42061L10.8257 9.49127L10.7379 9.72095C10.436 10.5103 10.5072 11.1424 10.593 11.5025C10.1905 12.0071 9.97592 12.6448 9.97592 13.3555ZM11.702 18.9388C11.9323 18.9961 12.1931 19.0224 12.4869 19.0063V19.0081V19.0106V19.013V19.0154V19.0178V19.0202V19.0226V19.0251V19.0274V19.0298V19.0322V19.0346V19.037V19.0394V19.0418V19.0441V19.0465V19.0488V19.0512V19.0536V19.0559V19.0583V19.0606V19.0629V19.0653V19.0676V19.0699V19.0722V19.0745V19.0769V19.0792V19.0815V19.0838V19.0861V19.0883V19.0906V19.0929V19.0952V19.0975V19.0997V19.102V19.1043V19.1065V19.1088V19.111V19.1133V19.1155V19.1177V19.12V19.1222V19.1244V19.1266V19.1288V19.131V19.1332V19.1354V19.1376V19.1398V19.142V19.1442V19.1464V19.1486V19.1507V19.1529V19.155V19.1572V19.1594V19.1615V19.1636V19.1658V19.1679V19.17V19.1722V19.1743V19.1764V19.1785V19.1806V19.1827V19.1848V19.1869V19.189V19.1911V19.1932V19.1953V19.1973V19.1994V19.2015V19.2035V19.2056V19.2076V19.2097V19.2117V19.2137V19.2158V19.2178V19.2198V19.2218V19.2238V19.2259V19.2279V19.2299V19.2319V19.2338V19.2358V19.2378V19.2398V19.2418V19.2437V19.2457V19.2476V19.2496V19.2515V19.2535V19.2554V19.2574V19.2593V19.2612V19.2631V19.2651V19.267V19.2689V19.2708V19.2727V19.2746V19.2765V19.2783V19.2802V19.2821V19.284V19.2858V19.2877V19.2896V19.2914V19.2932V19.2951V19.2969V19.2988V19.3006V19.3024V19.3042V19.306V19.3067C12.2154 19.2027 11.9532 19.0795 11.702 18.9388ZM10.452 18.0055C10.4526 18.0065 10.4532 18.0075 10.4538 18.0086C10.0546 17.6219 9.70869 17.1803 9.42851 16.6962C9.46729 16.7556 9.51117 16.8047 9.55083 16.844C9.61853 16.911 9.69958 16.9744 9.78925 17.0355L9.82779 17.0618L9.85762 17.0749C9.86026 17.0764 9.8642 17.0788 9.86933 17.0822C9.88906 17.0951 9.92671 17.1223 9.97467 17.1691C10.0678 17.2601 10.208 17.4332 10.3295 17.7374C10.3304 17.7402 10.3314 17.7432 10.3325 17.7463C10.3384 17.7633 10.3465 17.7849 10.3569 17.8104C10.3777 17.8613 10.4085 17.9286 10.452 18.0055ZM10.2509 16.1296C10.2509 16.1296 10.2516 16.1303 10.2529 16.1319C10.2515 16.1303 10.2508 16.1296 10.2509 16.1296Z" stroke="black" stroke-opacity="0.2"/>
</svg>
