<svg width="36" height="36" viewBox="0 0 36 36" fill="none" xmlns="http://www.w3.org/2000/svg">
<g filter="url(#filter0_d_20_295)">
<circle cx="18" cy="14" r="14" fill="white"/>
<circle cx="18" cy="14" r="13.5" stroke="black" stroke-opacity="0.2"/>
</g>
<path d="M18.0008 8.44721C19.8095 8.44721 20.0237 8.45398 20.7382 8.48656C21.1678 8.49182 21.5933 8.5707 21.9962 8.71979C22.2884 8.83248 22.5538 9.00511 22.7753 9.22656C22.9967 9.44802 23.1694 9.71339 23.282 10.0056C23.4311 10.4085 23.51 10.8341 23.5153 11.2637C23.5475 11.9782 23.5546 12.1924 23.5546 14.0011C23.5546 15.8098 23.5479 16.024 23.5153 16.7385C23.51 17.1681 23.4311 17.5936 23.282 17.9966C23.1694 18.2888 22.9967 18.5541 22.7753 18.7756C22.5538 18.997 22.2884 19.1697 21.9962 19.2824C21.5933 19.4315 21.1678 19.5103 20.7382 19.5156C20.024 19.5479 19.8098 19.5549 18.0008 19.5549C16.1917 19.5549 15.9775 19.5482 15.2633 19.5156C14.8337 19.5103 14.4082 19.4315 14.0053 19.2824C13.7131 19.1697 13.4477 18.997 13.2262 18.7756C13.0048 18.5541 12.8322 18.2888 12.7195 17.9966C12.5704 17.5936 12.4915 17.1681 12.4862 16.7385C12.454 16.024 12.4469 15.8098 12.4469 14.0011C12.4469 12.1924 12.4537 11.9782 12.4862 11.2637C12.4915 10.8341 12.5704 10.4085 12.7195 10.0056C12.8322 9.71339 13.0048 9.44802 13.2262 9.22656C13.4477 9.00511 13.7131 8.83248 14.0053 8.71979C14.4082 8.5707 14.8337 8.49182 15.2633 8.48656C15.9779 8.4543 16.192 8.44721 18.0008 8.44721V8.44721ZM18.0008 7.22656C16.162 7.22656 15.9304 7.2343 15.2079 7.26721C14.6456 7.27839 14.0893 7.38485 13.5627 7.58205C13.1109 7.75226 12.7017 8.019 12.3637 8.36366C12.0187 8.70184 11.7517 9.11127 11.5814 9.56334C11.3842 10.09 11.2777 10.6463 11.2666 11.2085C11.2343 11.9304 11.2266 12.162 11.2266 14.0008C11.2266 15.8395 11.2343 16.0711 11.2672 16.7937C11.2784 17.3559 11.3848 17.9122 11.582 18.4388C11.7522 18.8908 12.0189 19.3002 12.3637 19.6385C12.7019 19.9832 13.1113 20.25 13.5633 20.4201C14.09 20.6173 14.6463 20.7238 15.2085 20.7349C15.9311 20.7672 16.1617 20.7756 18.0014 20.7756C19.8411 20.7756 20.0717 20.7679 20.7943 20.7349C21.3565 20.7238 21.9128 20.6173 22.4395 20.4201C22.8893 20.2457 23.2978 19.9794 23.6389 19.6381C23.98 19.2968 24.246 18.8881 24.4201 18.4382C24.6173 17.9115 24.7238 17.3553 24.735 16.793C24.7672 16.0711 24.775 15.8395 24.775 14.0008C24.775 12.162 24.7672 11.9304 24.7343 11.2079C24.7231 10.6456 24.6167 10.0893 24.4195 9.56269C24.2493 9.11068 23.9826 8.70126 23.6379 8.36301C23.2996 8.01828 22.8902 7.75153 22.4382 7.5814C21.9115 7.3842 21.3553 7.27775 20.793 7.26656C20.0711 7.2343 19.8395 7.22656 18.0008 7.22656Z" fill="black"/>
<path d="M22.1762 8.25328L22.1762 8.25323L22.1697 8.25086C21.7159 8.08293 21.2367 7.99361 20.7529 7.98671C20.0331 7.95392 19.8048 7.94721 18.0008 7.94721C16.1964 7.94721 15.9683 7.95425 15.2487 7.98671C14.7649 7.9936 14.2857 8.08292 13.8318 8.25086L13.8318 8.25081L13.8254 8.25328C13.468 8.39109 13.1435 8.60219 12.8727 8.87301C12.6019 9.14382 12.3908 9.46834 12.253 9.82568L12.2529 9.82566L12.2505 9.83209C12.0826 10.286 11.9933 10.7651 11.9864 11.249C11.9536 11.9687 11.9469 12.197 11.9469 14.0011C11.9469 15.8054 11.9539 16.0335 11.9864 16.7531C11.9933 17.237 12.0826 17.7162 12.2505 18.1701L12.2505 18.1701L12.253 18.1765C12.3908 18.5338 12.6019 18.8583 12.8727 19.1291C13.1435 19.4 13.468 19.6111 13.8254 19.7489L13.8253 19.7489L13.8318 19.7513C14.2856 19.9192 14.7648 20.0085 15.2486 20.0154C15.968 20.0482 16.1964 20.0549 18.0008 20.0549C19.8054 20.0549 20.0335 20.0479 20.7528 20.0154C21.2366 20.0086 21.7158 19.9192 22.1697 19.7513L22.1698 19.7513L22.1762 19.7489C22.5335 19.6111 22.858 19.4 23.1288 19.1291C23.3996 18.8583 23.6107 18.5338 23.7486 18.1765L23.7486 18.1765L23.751 18.1701C23.9189 17.7162 24.0082 17.237 24.0151 16.7532C24.0479 16.0335 24.0546 15.8051 24.0546 14.0011C24.0546 12.1967 24.0476 11.9686 24.0151 11.2491C24.0082 10.7652 23.9189 10.286 23.751 9.83209L23.751 9.83208L23.7486 9.82568C23.6107 9.46834 23.3996 9.14382 23.1288 8.87301C22.858 8.60219 22.5335 8.39109 22.1762 8.25328ZM15.2178 7.76711L15.2178 7.76727L15.2306 7.76669C15.9418 7.73431 16.1645 7.72656 18.0008 7.72656C19.837 7.72656 20.0599 7.7343 20.7707 7.76606L20.7707 7.76622L20.7831 7.76646C21.2887 7.77652 21.7889 7.87223 22.2625 8.04951C22.6462 8.19402 22.9938 8.42051 23.281 8.71319L23.2809 8.71326L23.2877 8.71991C23.5804 9.00713 23.8069 9.35477 23.9514 9.73857C24.1287 10.2121 24.2243 10.7123 24.2344 11.2178L24.2342 11.2178L24.2348 11.2306C24.2672 11.9418 24.275 12.1645 24.275 14.0008C24.275 15.837 24.2672 16.0599 24.2354 16.7707L24.2353 16.7707L24.235 16.7831C24.225 17.2879 24.1296 17.7873 23.9528 18.2603C23.8038 18.6444 23.5765 18.9932 23.2852 19.2847C22.994 19.5761 22.6453 19.8036 22.2614 19.9529C21.7885 20.1296 21.2891 20.225 20.7844 20.235L20.7844 20.2349L20.7716 20.2355C20.0604 20.2678 19.8387 20.2756 18.0014 20.2756C16.1645 20.2756 15.9424 20.2672 15.2308 20.2354L15.2308 20.2353L15.2184 20.235C14.7129 20.225 14.2128 20.1293 13.7392 19.9521C13.3554 19.8076 13.0078 19.581 12.7206 19.2883L12.7206 19.2883L12.7138 19.2816C12.4212 18.9944 12.1947 18.6468 12.0501 18.2631C11.8729 17.7895 11.7772 17.2893 11.7671 16.7837L11.7673 16.7837L11.7667 16.7709C11.7343 16.0597 11.7266 15.8371 11.7266 14.0008C11.7266 12.1645 11.7343 11.9416 11.7661 11.2308L11.7662 11.2308L11.7665 11.2184C11.7765 10.7129 11.8722 10.2127 12.0495 9.73918C12.1941 9.3554 12.4208 9.00782 12.7137 8.72071L12.7138 8.72077L12.7206 8.71378C13.0076 8.42118 13.355 8.1947 13.7385 8.05012C14.2121 7.87286 14.7122 7.77716 15.2178 7.76711Z" stroke="black" stroke-opacity="0.2"/>
<path d="M18.0021 10.5234C17.3141 10.5234 16.6416 10.7275 16.0695 11.1097C15.4974 11.492 15.0515 12.0353 14.7882 12.6709C14.5249 13.3066 14.4561 14.006 14.5903 14.6808C14.7245 15.3556 15.0558 15.9755 15.5423 16.462C16.0288 16.9485 16.6487 17.2798 17.3235 17.414C17.9983 17.5482 18.6977 17.4794 19.3334 17.2161C19.969 16.9528 20.5123 16.5069 20.8946 15.9348C21.2768 15.3627 21.4809 14.6902 21.4809 14.0021C21.4809 13.0795 21.1144 12.1947 20.462 11.5423C19.8096 10.8899 18.9248 10.5234 18.0021 10.5234ZM18.0021 16.2602C17.5555 16.2602 17.119 16.1278 16.7476 15.8797C16.3763 15.6315 16.0869 15.2789 15.916 14.8663C15.7451 14.4537 15.7003 13.9996 15.7875 13.5616C15.8746 13.1236 16.0897 12.7213 16.4055 12.4055C16.7213 12.0897 17.1236 11.8746 17.5616 11.7875C17.9996 11.7003 18.4537 11.7451 18.8663 11.916C19.2789 12.0869 19.6315 12.3763 19.8797 12.7476C20.1278 13.119 20.2602 13.5555 20.2602 14.0021C20.2602 14.601 20.0223 15.1754 19.5988 15.5988C19.1754 16.0223 18.601 16.2602 18.0021 16.2602V16.2602Z" fill="black"/>
<path d="M16.3473 11.5254C16.8371 11.1981 17.413 11.0234 18.0021 11.0234C18.7922 11.0234 19.5498 11.3373 20.1084 11.8959C20.667 12.4545 20.9809 13.2121 20.9809 14.0021C20.9809 14.5913 20.8062 15.1672 20.4789 15.657C20.1516 16.1469 19.6863 16.5287 19.1421 16.7541C18.5978 16.9796 17.9988 17.0386 17.421 16.9236C16.8432 16.8087 16.3125 16.525 15.8959 16.1084C15.4793 15.6918 15.1956 15.1611 15.0807 14.5833C14.9657 14.0055 15.0247 13.4065 15.2502 12.8622C15.4756 12.318 15.8574 11.8527 16.3473 11.5254ZM16.4699 16.2954C16.9234 16.5985 17.4567 16.7602 18.0021 16.7602C18.7336 16.7602 19.4352 16.4696 19.9524 15.9524C20.4696 15.4352 20.7602 14.7336 20.7602 14.0021C20.7602 13.4567 20.5985 12.9234 20.2954 12.4698C19.9923 12.0163 19.5616 11.6628 19.0576 11.454C18.5536 11.2453 17.9991 11.1907 17.4641 11.2971C16.9291 11.4035 16.4376 11.6662 16.0519 12.0519C15.6662 12.4376 15.4035 12.9291 15.2971 13.4641C15.1907 13.9991 15.2453 14.5536 15.454 15.0576C15.6628 15.5616 16.0163 15.9923 16.4699 16.2954Z" stroke="black" stroke-opacity="0.2"/>
<path d="M21.6176 11.1981C22.0665 11.1981 22.4305 10.8341 22.4305 10.3852C22.4305 9.93621 22.0665 9.57227 21.6176 9.57227C21.1686 9.57227 20.8047 9.93621 20.8047 10.3852C20.8047 10.8341 21.1686 11.1981 21.6176 11.1981Z" fill="black"/>
<path d="M21.9305 10.3852C21.9305 10.558 21.7904 10.6981 21.6176 10.6981C21.4448 10.6981 21.3047 10.558 21.3047 10.3852C21.3047 10.2124 21.4448 10.0723 21.6176 10.0723C21.7904 10.0723 21.9305 10.2124 21.9305 10.3852Z" stroke="black" stroke-opacity="0.2"/>
<defs>
<filter id="filter0_d_20_295" x="0" y="0" width="36" height="36" filterUnits="userSpaceOnUse" color-interpolation-filters="sRGB">
<feFlood flood-opacity="0" result="BackgroundImageFix"/>
<feColorMatrix in="SourceAlpha" type="matrix" values="0 0 0 0 0 0 0 0 0 0 0 0 0 0 0 0 0 0 127 0" result="hardAlpha"/>
<feOffset dy="4"/>
<feGaussianBlur stdDeviation="2"/>
<feComposite in2="hardAlpha" operator="out"/>
<feColorMatrix type="matrix" values="0 0 0 0 0 0 0 0 0 0 0 0 0 0 0 0 0 0 0.25 0"/>
<feBlend mode="normal" in2="BackgroundImageFix" result="effect1_dropShadow_20_295"/>
<feBlend mode="normal" in="SourceGraphic" in2="effect1_dropShadow_20_295" result="shape"/>
</filter>
</defs>
</svg>
